<svg id="icons" xmlns="http://www.w3.org/2000/svg" viewBox="0 0 48 48"><defs><style>.cls-1{fill:#00377c;}.cls-2{fill:#fff;}</style></defs><title>PARK</title><path class="cls-1" d="M42,0H6A6,6,0,0,0,0,6V42a6,6,0,0,0,6,6H42a6,6,0,0,0,6-6V6a6,6,0,0,0-6-6Z"/><path class="cls-2" d="M23.81,13.39a3,3,0,1,0-3-3A3,3,0,0,0,23.81,13.39Z"/><path class="cls-2" d="M32.61,25.48l-3.12-8.66-.09-.19A12.41,12.41,0,0,0,34.71,6.47a1.63,1.63,0,0,0-3.26,0,9.14,9.14,0,0,1-9.13,9.14,9.08,9.08,0,0,1-7.16-3.46,1.63,1.63,0,0,0-2.55,2,12.26,12.26,0,0,0,11.21,4.59.32.32,0,0,0,0,.09l2.28,6.33H21.74a5.18,5.18,0,0,0-3.66,1.37l-3.33,3.09L8.67,22.27l-1.17,1,16.91,20.5,1.18-1-3.54-4.29,9.68-9.7c.11-.09.32-.32.32-.32h0A3,3,0,0,0,32.61,25.48ZM16.83,32.15l3.48-3.23a2.08,2.08,0,0,1,1.43-.49h5.74L20,36Z"/></svg>