<svg id="icons" xmlns="http://www.w3.org/2000/svg" viewBox="0 0 48 48"><defs><style>.cls-1{fill:#00377c;}.cls-2{fill:#fff;}</style></defs><title>TK</title><rect class="cls-1" width="48" height="48" rx="6"/><path class="cls-2" d="M42,0h-.46L29.64,17l-8.56-4.33h0a4.47,4.47,0,0,0-1.88-.33h-1a1.8,1.8,0,0,0-.41,0,3,3,0,0,0-2.64,3l0,7.94a3,3,0,0,0,.72,1.93s6.26,7.35,6.41,7.54a1.27,1.27,0,0,1,.24.59l-.05,6.94L10.33,42.45l.28,1.49L35.26,39.4A4.31,4.31,0,0,0,39,35.83l-1.49-.29A2.83,2.83,0,0,1,35,37.91l-9.28,1.71.05-6.32A4.14,4.14,0,0,0,25.08,31l-3.94-7.55V16.3l6.6,3.34-3.91,5.57,1.24.87,4.05-5.75.62.32a1.57,1.57,0,0,0,.73.17,1.61,1.61,0,0,0,1.45-.89,1.63,1.63,0,0,0-.71-2.19l-.2-.1L43.31.15A5.66,5.66,0,0,0,42,0Z"/><path class="cls-2" d="M18.71,10.73a3,3,0,1,0-3-3A3,3,0,0,0,18.71,10.73Z"/><rect class="cls-2" x="16.75" y="29.23" width="1.52" height="4.92" transform="translate(-18.39 26.99) rotate(-53.62)"/></svg>