<svg id="icons" xmlns="http://www.w3.org/2000/svg" viewBox="0 0 48 48"><defs><style>.cls-1{fill:#00377c;}.cls-2{fill:#fff;}</style></defs><title>TS</title><rect class="cls-1" width="48" height="48" rx="6"/><rect class="cls-2" x="9.24" width="1.52" height="22.21"/><path class="cls-2" d="M16.89,16.36a3,3,0,1,0-2.92-3A2.95,2.95,0,0,0,16.89,16.36Z"/><path class="cls-2" d="M38.5,37.37l-4.34.76-3.09-8.59a3.27,3.27,0,0,0-3.67-2.2l-4.7.82L19.62,19.7A3,3,0,1,0,14,21.75L17,30a2.93,2.93,0,0,0,2.79,2,4.09,4.09,0,0,0,.58,0l.15,0L28,30.6l2.92,8.11L15.12,41.5l.26,1.5,23.38-4.14A5.17,5.17,0,0,0,43,35.07l-1.49-.3A3.68,3.68,0,0,1,38.5,37.37Z"/><path class="cls-2" d="M19.93,37.49l6.92-1.25L26.26,33l-6.91,1.25a3.81,3.81,0,0,1-4.21-2.5l-2.8-7.89L9.27,25l2.81,7.9a7.08,7.08,0,0,0,6.63,4.71A6.36,6.36,0,0,0,19.93,37.49Z"/></svg>