<svg id="icons" xmlns="http://www.w3.org/2000/svg" viewBox="0 0 79.63 48"><defs><style>.cls-1{fill:#00377c;}</style></defs><title>unknown_1</title><g id="gray_bg" data-name="gray bg"><path class="cls-1" d="M38,48A24,24,0,1,1,62,24,24,24,0,0,1,38,48ZM38,1.92A22.08,22.08,0,1,0,60.08,24,22.1,22.1,0,0,0,38,1.92Z"/><path class="cls-1" d="M37.34,42.24H37A4.64,4.64,0,1,1,37.19,33h.21a4.64,4.64,0,0,1-.06,9.27Zm-.07-1.92h0a2.72,2.72,0,0,0,.07-5.43h-.27a2.72,2.72,0,0,0-.07,5.43Zm3.35-9.83H33.28V27.75c0-5,2.91-6.93,5-8.37,1.61-1.08,2.52-1.76,2.52-3,0-1.93-1.8-2.22-2.88-2.22a6.54,6.54,0,0,0-5,2.61l-.59.78L27,13.41l.63-.77a13.65,13.65,0,0,1,10.84-5c7.13,0,10.39,4.31,10.39,8.31,0,4.42-2.77,6.3-5,7.81-2,1.37-3.27,2.31-3.27,4.25ZM35.2,28.57h3.5V28c0-3.05,2.19-4.54,4.11-5.84C45,20.69,47,19.32,47,15.92c0-3.18-2.63-6.39-8.49-6.39a11.63,11.63,0,0,0-8.68,3.59l2.27,1.76a8.48,8.48,0,0,1,5.87-2.64h0c3,0,4.83,1.62,4.83,4.14,0,2.32-1.71,3.48-3.37,4.6-2.07,1.39-4.2,2.83-4.2,6.77Z"/></g></svg>