<svg id="icons" xmlns="http://www.w3.org/2000/svg" viewBox="0 0 79.63 48"><defs><style>.cls-1{fill:#00377c;}</style></defs><title>СНЕГ</title><g id="path4146"><path class="cls-1" d="M55.47,35.22a1,1,0,0,1,0-1.95,12.1,12.1,0,1,0,0-24.2,12.48,12.48,0,0,0-1.62.11,12.18,12.18,0,0,0-8,4.44,1,1,0,0,1-1.37.15,1,1,0,0,1-.14-1.37A14.17,14.17,0,0,1,53.6,7.25a14.56,14.56,0,0,1,1.87-.12,14,14,0,1,1,0,28.09Zm-33.71,0a11.67,11.67,0,1,1,0-23.34,11.46,11.46,0,0,1,1.17.06,17.94,17.94,0,0,1,26.5-9.16,1,1,0,0,1-1,1.64,16,16,0,0,0-23.85,8.86l-.24.83L23.45,14a9.64,9.64,0,0,0-1.69-.14,9.72,9.72,0,1,0,0,19.44,1,1,0,0,1,0,1.95Z"/></g><g id="path4148"><path class="cls-1" d="M51.37,38.72a1,1,0,0,1-.68-.29l-7-7a1,1,0,1,1,1.37-1.37l7,7a1,1,0,0,1,0,1.37A1,1,0,0,1,51.37,38.72Z"/></g><g id="path4150"><path class="cls-1" d="M44.37,38.72a1,1,0,0,1-.69-.29,1,1,0,0,1,0-1.37l7-7a1,1,0,1,1,1.37,1.37l-7,7A1,1,0,0,1,44.37,38.72Z"/></g><g id="path4152"><path class="cls-1" d="M31.93,38.72a1,1,0,0,1-.68-.29l-7-7a1,1,0,0,1,0-1.37,1,1,0,0,1,1.38,0l7,7a1,1,0,0,1,0,1.37A1,1,0,0,1,31.93,38.72Z"/></g><g id="path4154"><path class="cls-1" d="M24.93,38.72a1,1,0,0,1-.69-.29,1,1,0,0,1,0-1.37l7-7a1,1,0,1,1,1.37,1.37l-7,7A1,1,0,0,1,24.93,38.72Z"/></g><g id="path4156"><path class="cls-1" d="M41.57,48a1,1,0,0,1-.69-.28l-7-7a1,1,0,0,1,1.37-1.37l7,7a1,1,0,0,1,0,1.38A1,1,0,0,1,41.57,48Z"/></g><g id="path4158"><path class="cls-1" d="M34.56,48a.94.94,0,0,1-.68-.28,1,1,0,0,1,0-1.38l7-7a1,1,0,0,1,1.37,1.37l-7,7A1,1,0,0,1,34.56,48Z"/></g></svg>