<svg id="icons" xmlns="http://www.w3.org/2000/svg" viewBox="0 0 79.63 48"><defs><style>.cls-1{fill:#00377c;}</style></defs><title>БУРЯ</title><g id="path4154"><path class="cls-1" d="M55.47,35.48a1,1,0,0,1,0-1.94,12.1,12.1,0,1,0,0-24.2,12.47,12.47,0,0,0-1.62.1,12.26,12.26,0,0,0-8,4.44,1,1,0,0,1-1.37.15,1,1,0,0,1-.14-1.37A14.17,14.17,0,0,1,53.6,7.51a14.56,14.56,0,0,1,1.87-.12,14,14,0,1,1,0,28.09Zm-33.71,0a11.67,11.67,0,1,1,0-23.33c.39,0,.78,0,1.17,0A17.94,17.94,0,0,1,49.43,3a1,1,0,0,1-1,1.64,16,16,0,0,0-23.85,8.86l-.24.84-.85-.15a10.61,10.61,0,0,0-1.69-.14,9.73,9.73,0,1,0,0,19.45,1,1,0,0,1,0,1.94Z"/></g><g id="path4156"><path class="cls-1" d="M36.17,47.74a1,1,0,0,1-.84-1.46l4.56-7.94-6.11-.11,5.39-9.46a1,1,0,0,1,1.32-.36,1,1,0,0,1,.36,1.32l-3.76,6.62,6.13.1L37,47.25A1,1,0,0,1,36.17,47.74Z"/></g></svg>