<svg id="icons" xmlns="http://www.w3.org/2000/svg" viewBox="0 0 79.63 48"><defs><style>.cls-1{fill:#00377c;}</style></defs><title>ДОЖДЬ</title><g id="path3"><path class="cls-1" d="M56.05,36.78a1,1,0,0,1,0-2,12.59,12.59,0,1,0,0-25.17,13.29,13.29,0,0,0-1.68.11,12.73,12.73,0,0,0-8.3,4.63,1,1,0,0,1-1.36.14,1,1,0,0,1-.15-1.37,14.63,14.63,0,0,1,9.56-5.32,13.7,13.7,0,0,1,1.93-.13,14.53,14.53,0,1,1,0,29.06Zm-35,0a12.07,12.07,0,1,1,0-24.13c.41,0,.83,0,1.24.06A18.58,18.58,0,0,1,49.77,3.2a1,1,0,1,1-1,1.64,16.63,16.63,0,0,0-24.79,9.22l-.24.83-.85-.15a10.37,10.37,0,0,0-1.76-.15,10.12,10.12,0,1,0,0,20.24,1,1,0,0,1,0,2Z"/></g><g id="path5"><path class="cls-1" d="M25.89,42.22h-.16a1,1,0,0,1-.8-1.12l1.21-7.26a1,1,0,0,1,1.12-.8,1,1,0,0,1,.8,1.12l-1.21,7.26A1,1,0,0,1,25.89,42.22Z"/></g><g id="path7"><path class="cls-1" d="M50.41,42.22h-.16a1,1,0,0,1-.8-1.12l1.21-7.26a1,1,0,0,1,1.12-.8,1,1,0,0,1,.8,1.12l-1.21,7.26A1,1,0,0,1,50.41,42.22Z"/></g><g id="path9"><path class="cls-1" d="M41.33,47.67h-.16a1,1,0,0,1-.8-1.12l2.12-12.71a1,1,0,0,1,1.12-.8,1,1,0,0,1,.79,1.12L42.29,46.86A1,1,0,0,1,41.33,47.67Zm-8.17,0H33a1,1,0,0,1-.8-1.12l2.12-12.71a1,1,0,1,1,1.91.32L34.11,46.86A1,1,0,0,1,33.16,47.67Z"/></g></svg>