<svg id="icons" xmlns="http://www.w3.org/2000/svg" viewBox="0 0 79.63 48"><defs><style>.cls-1{fill:#00377c;}</style></defs><title>ОБЛАЧНО</title><g id="path4693"><path class="cls-1" d="M47.17,47.67h-35a12.06,12.06,0,1,1,0-24.12c.41,0,.83,0,1.24.06A18.57,18.57,0,0,1,40.89,14.1a1,1,0,1,1-1,1.64A16.63,16.63,0,0,0,15.06,25l-.24.83L14,25.64a10.37,10.37,0,0,0-1.76-.15,10.12,10.12,0,1,0,0,20.24h35a12.59,12.59,0,1,0,0-25.17,13.29,13.29,0,0,0-1.68.11,12.72,12.72,0,0,0-8.3,4.62,1,1,0,1,1-1.5-1.22,14.66,14.66,0,0,1,9.55-5.33,15.39,15.39,0,0,1,1.93-.12,14.53,14.53,0,1,1,0,29.05Z"/></g><g id="path4695"><path class="cls-1" d="M65,28.73a1,1,0,0,1-.68-1.66A8.11,8.11,0,0,0,53,15.48a1,1,0,0,1-1.38,0,1,1,0,0,1,0-1.37A10,10,0,0,1,65.72,28.45,1,1,0,0,1,65,28.73Z"/></g><g id="path4697"><path class="cls-1" d="M58.68,6.81a1,1,0,0,1-1-1V1.3a1,1,0,1,1,1.94,0V5.84A1,1,0,0,1,58.68,6.81Z"/></g><g id="path4699"><path class="cls-1" d="M69.6,11.33a1,1,0,0,1-.69-.28,1,1,0,0,1,0-1.38l3.21-3.21a1,1,0,0,1,1.38,0,1,1,0,0,1,0,1.38l-3.21,3.21A1,1,0,0,1,69.6,11.33Z"/></g><g id="path4701"><path class="cls-1" d="M78.66,22.25H74.12a1,1,0,0,1,0-1.95h4.54a1,1,0,0,1,0,1.95Z"/></g><g id="path4703"><path class="cls-1" d="M72.81,36.37a1,1,0,0,1-.69-.28l-3.21-3.21a1,1,0,0,1,0-1.38,1,1,0,0,1,1.38,0l3.21,3.21a1,1,0,0,1,0,1.38A1,1,0,0,1,72.81,36.37Zm-25-25a1,1,0,0,1-.69-.28L43.87,7.84a1,1,0,0,1,0-1.38,1,1,0,0,1,1.37,0l3.21,3.21a1,1,0,0,1,0,1.38A.94.94,0,0,1,47.77,11.33Z"/></g></svg>