<?xml version="1.0" encoding="utf-8"?>
<!-- Generator: Adobe Illustrator 23.1.1, SVG Export Plug-In . SVG Version: 6.00 Build 0)  -->
<svg version="1.1" id="icons" xmlns="http://www.w3.org/2000/svg" xmlns:xlink="http://www.w3.org/1999/xlink" x="0px" y="0px"
	 viewBox="0 0 79.6 48" style="enable-background:new 0 0 79.6 48;" xml:space="preserve">
<style type="text/css">
	.st0{fill:#00377C;}
</style>
<title>ПАСМУРНО</title>
<g id="path4144">
	<path class="st0" d="M56.7,43.5h-42c-7.9,0-14.3-6.4-14.3-14.3S6.9,15,14.7,15c0.6,0,1.1,0,1.7,0.1c4-11.5,16.5-17.6,28-13.7
		c1.6,0.6,3.2,1.3,4.6,2.2c0.5,0.1,0.8,0.6,0.7,1.2s-0.6,0.8-1.2,0.7c-0.2,0-0.4-0.2-0.5-0.3c-9.4-6-21.9-3.2-27.9,6.3
		c-1,1.5-1.7,3.2-2.3,5l-0.2,0.8L16.9,17c-0.7-0.1-1.4-0.2-2.2-0.2c-6.9,0-12.4,5.6-12.4,12.4s5.6,12.4,12.4,12.4h42
		c8.5,0.2,15.6-6.5,15.8-15s-6.5-15.6-15-15.8c-0.3,0-0.5,0-0.8,0c-0.7,0-1.4,0-2.1,0.1c-4,0.5-7.6,2.5-10.1,5.6
		c-0.4,0.3-1,0.2-1.3-0.3c-0.2-0.3-0.2-0.6-0.1-0.9C46,12.1,50,9.8,54.5,9.3c0.8-0.1,1.5-0.1,2.3-0.1c9.5-0.2,17.4,7.3,17.6,16.8
		s-7.3,17.4-16.8,17.6C57.3,43.5,57,43.5,56.7,43.5z"/>
</g>
</svg>
