<svg id="icons" xmlns="http://www.w3.org/2000/svg" viewBox="0 0 79.63 48"><defs><style>.cls-1{fill:#00377c;}</style></defs><title>СОЛНЕЧНО</title><g id="circle3"><path class="cls-1" d="M39.82,35.35A11.35,11.35,0,1,1,51.16,24,11.36,11.36,0,0,1,39.82,35.35Zm0-20.75a9.4,9.4,0,1,0,9.4,9.4A9.41,9.41,0,0,0,39.82,14.6Z"/></g><g id="path5"><path class="cls-1" d="M39.82,47.8a1,1,0,0,1-1-1V41.64a1,1,0,0,1,1.94,0v5.19A1,1,0,0,1,39.82,47.8Zm0-40.47a1,1,0,0,1-1-1V1.17a1,1,0,0,1,1.94,0V6.36A1,1,0,0,1,39.82,7.33Z"/></g><g id="path7"><path class="cls-1" d="M23.67,41.11a1,1,0,0,1-.68-.28,1,1,0,0,1,0-1.38l3.67-3.66A1,1,0,1,1,28,37.16l-3.67,3.67A1,1,0,0,1,23.67,41.11ZM52.29,12.5a1,1,0,0,1-.69-.29,1,1,0,0,1,0-1.37l3.67-3.67a1,1,0,0,1,1.37,0,1,1,0,0,1,0,1.38L53,12.21A1,1,0,0,1,52.29,12.5Z"/></g><g id="path9"><path class="cls-1" d="M62.64,25H57.45a1,1,0,1,1,0-1.94h5.19a1,1,0,0,1,0,1.94ZM22.18,25H17A1,1,0,1,1,17,23h5.19a1,1,0,0,1,0,1.94Z"/></g><g id="path11"><path class="cls-1" d="M56,41.11a1,1,0,0,1-.69-.28L51.6,37.16a1,1,0,0,1,0-1.37,1,1,0,0,1,1.38,0l3.66,3.66a1,1,0,0,1,0,1.38A1,1,0,0,1,56,41.11ZM27.34,12.5a1,1,0,0,1-.68-.29L23,8.55a1,1,0,0,1,0-1.38,1,1,0,0,1,1.37,0L28,10.84a1,1,0,0,1,0,1.37A1,1,0,0,1,27.34,12.5Z"/></g></svg>