<svg id="icons" xmlns="http://www.w3.org/2000/svg" viewBox="0 0 48 48"><defs><style>.cls-1{fill:#00377c;}.cls-2{fill:#fff;}</style></defs><title>TC</title><rect class="cls-1" width="48" height="48" rx="6"/><path class="cls-2" d="M31.09,9.32H22.88l1.06-1.53A6,6,0,0,0,25,4.35V0H23.5V4.35a4.48,4.48,0,0,1-.81,2.57L21,9.32H15.92v3.26H31.09Z"/><path class="cls-2" d="M35.11,15.85a5,5,0,0,0-3.56-1.48h-15A5,5,0,0,0,13,15.85c-3.62,3.72-5.24,7.49-5.24,12.23A17.42,17.42,0,0,0,13,40.69a5,5,0,0,0,3.59,1.51h15a5,5,0,0,0,3.6-1.51,17.41,17.41,0,0,0,5.21-12.61C40.34,23.34,38.73,19.57,35.11,15.85ZM30,27.32v.74a20,20,0,0,1-1.16,7h-18a15.54,15.54,0,0,1-1.54-7c0-4.37,1.44-7.71,4.8-11.17a3.45,3.45,0,0,1,2.48-1h10.7C30,20.15,30,23.48,30,27.32ZM30.47,35a21.68,21.68,0,0,0,1.06-7v-.74c0-3.68,0-7.17-2.49-11.43h2.51a3.44,3.44,0,0,1,2.47,1c3.37,3.46,4.8,6.8,4.8,11.17a15.54,15.54,0,0,1-1.54,7Z"/></svg>