<svg id="icons" xmlns="http://www.w3.org/2000/svg" viewBox="0 0 48 48"><defs><style>.cls-1{fill:#00377c;}.cls-2{fill:#fff;}</style></defs><title>TR</title><rect class="cls-1" width="48" height="48" rx="6"/><path class="cls-2" d="M23.88,9.84a2.72,2.72,0,1,0-2.67-2.72A2.7,2.7,0,0,0,23.88,9.84Z"/><path class="cls-2" d="M40.32,34.6l-1.42-.54A2.8,2.8,0,0,1,36.05,36H29v-7a2,2,0,0,0-.14-.8L26,20.79V18a2.6,2.6,0,0,0,.54.56l4.42,3.4a1.54,1.54,0,0,0,.93.32,1.56,1.56,0,0,0,1.22-.6,1.54,1.54,0,0,0-.28-2.15l-4.35-3.34-1.22-3.35a2.86,2.86,0,0,0-2.68-1.88H23.3a2.68,2.68,0,0,0-2.67,2.67v7.15s0,.06,0,.09v7a1.91,1.91,0,0,1-.16.78l0,.09L17.77,36H10.22v1.52H36.05A4.3,4.3,0,0,0,40.32,34.6Zm-17-4.77a5.14,5.14,0,0,0,.4-2V25.62l2.22,3.46V36H21Z"/><path class="cls-2" d="M0,40.05v2a6,6,0,0,0,.08,1H47.92A6,6,0,0,0,48,42v-2Z"/></svg>