<svg id="icons" xmlns="http://www.w3.org/2000/svg" viewBox="0 0 48 48"><defs><style>.cls-1{fill:#00377c;}.cls-2{fill:#fff;}</style></defs><title>TSD</title><rect class="cls-1" width="48" height="48" rx="6"/><path class="cls-2" d="M24.33,16.34a3,3,0,1,0-2.91-3A2.95,2.95,0,0,0,24.33,16.34Z"/><path class="cls-2" d="M38.5,37.37l-4.34.76-3.09-8.59a3.28,3.28,0,0,0-3.67-2.2l-4.15.74L25.5,21.4a3,3,0,0,0-5.69-1.91L17,28a3,3,0,0,0,1.88,3.8,2.9,2.9,0,0,0,1,.14c.3,0,.71-.07.7-.06L28,30.6l2.92,8.11L15.12,41.5l.26,1.5,23.38-4.13a4.42,4.42,0,0,0,3.69-3.69L41,34.88A2.91,2.91,0,0,1,38.5,37.37Z"/><path class="cls-2" d="M23.48,0V3.84A2.18,2.18,0,0,1,21.69,6C13.34,7.59,7.79,13.11,6.83,20.74c-.75,6.07,1.78,11.92,6,13.91l.11-.22.58-1.31C10,31.41,7.84,26.3,8.5,21,9.36,14.08,14.41,9.09,22,7.62a3.86,3.86,0,0,0,3.15-3.78V0Z"/><path class="cls-2" d="M26.26,33l-6,1.11a9.09,9.09,0,0,1-5-.92l-1.32,3a12.28,12.28,0,0,0,5.33,1.26,9.8,9.8,0,0,0,1.51-.12l6-1.11Z"/></svg>