<svg xmlns="http://www.w3.org/2000/svg" viewBox="0 0 60.76 42.4"><defs><style>.cls-1{fill:#00377c;}</style></defs><g id="txt"><path class="cls-1" d="M1.56,13.19H30.43c.18,0,.35.05.54.05a6.62,6.62,0,1,0-6.63-6.62,6.54,6.54,0,0,0,1,3.45H1.56a1.56,1.56,0,0,0,0,3.12Z"/><path class="cls-1" d="M39.67,29.19l-.13,0h-37a1.56,1.56,0,0,0,0,3.12H33.81a6.56,6.56,0,0,0-1,3.5,6.63,6.63,0,1,0,6.89-6.59Z"/><path class="cls-1" d="M60.76,16.7a6.62,6.62,0,1,0-12.22,3.5H1.69a1.56,1.56,0,0,0,0,3.12H54.27s.09,0,.13,0A6.61,6.61,0,0,0,60.76,16.7Z"/></g></svg>