<svg id="icons" xmlns="http://www.w3.org/2000/svg" viewBox="0 0 48 48"><defs><style>.cls-1{fill:#e8df31;}.cls-2{fill:#fff;}</style></defs><title>P</title><circle class="cls-1" cx="24" cy="24" r="24"/><path class="cls-2" d="M24,40.75h0a3.43,3.43,0,0,1-3.42-3.42v.15A3.43,3.43,0,0,1,24,34.06h0a3.43,3.43,0,0,1,3.42,3.42v-.15A3.43,3.43,0,0,1,24,40.75Z"/><path class="cls-2" d="M24,8.43h0a3.43,3.43,0,0,1,3.42,3.42V27.47A3.42,3.42,0,0,1,24,30.89h0a3.42,3.42,0,0,1-3.42-3.42V11.85A3.43,3.43,0,0,1,24,8.43Z"/></svg>