<svg id="icons" xmlns="http://www.w3.org/2000/svg" viewBox="0 0 48 48"><defs><style>.cls-1{fill:#00377c;}.cls-2{fill:#fff;}</style></defs><title>ЗООПОДВОРЬЕ «ЛАПКИ»</title><rect class="cls-1" width="48" height="48" rx="6"/><path class="cls-2" d="M22.6,8.53a13.1,13.1,0,0,0-4.79-2,1.44,1.44,0,0,0-1.69,1.12,13.76,13.76,0,0,0-.2,4.7A19.88,19.88,0,0,1,22.6,8.53Z"/><path class="cls-2" d="M36.57,12.24a13.63,13.63,0,0,0-.21-4.55,1.45,1.45,0,0,0-1.7-1.12,13.43,13.43,0,0,0-4.72,1.91A19.28,19.28,0,0,1,36.57,12.24Z"/><path class="cls-2" d="M23.11,16.22a1.16,1.16,0,1,1-1.64,0A1.16,1.16,0,0,1,23.11,16.22Z"/><path class="cls-2" d="M31.17,16.22a1.16,1.16,0,1,1-1.64,0A1.16,1.16,0,0,1,31.17,16.22Z"/><path class="cls-2" d="M26.24,9.45c-5.59,0-10.42,4.87-11.82,6.43.36.4.94,1,1.7,1.71a13.34,13.34,0,0,1,4.57-3.82,3.49,3.49,0,0,1,1.46-.32,3.55,3.55,0,0,1,3.33,4.79,3.62,3.62,0,0,1-.74,1.18,5,5,0,0,1-1.16.82,6.91,6.91,0,0,0-1,.74.43.43,0,0,0,.15.73,12.11,12.11,0,0,0,2.08.49s0,0,0-.06a1.41,1.41,0,0,1,2.82,0s0,0,0,.06a12.39,12.39,0,0,0,2.2-.53A.44.44,0,0,0,30,21a5.7,5.7,0,0,0-.79-.67L28.83,20a4.25,4.25,0,0,1-.89-.58,3.52,3.52,0,0,1-.85-4.07,3.57,3.57,0,0,1,4.7-1.78,13.38,13.38,0,0,1,4.64,3.91c.72-.67,1.28-1.26,1.63-1.64C36.65,14.32,31.83,9.45,26.24,9.45Z"/><path class="cls-2" d="M16,32l-4.3,4.3a14.67,14.67,0,0,0,1,1.11,12.74,12.74,0,0,0,1.66,1.39l3.19-3.19A21.63,21.63,0,0,1,16,32Z"/><path class="cls-2" d="M19,38.15l-2.13,2.13A20.82,20.82,0,0,0,22,41.74,29.36,29.36,0,0,1,19,38.15Z"/><path class="cls-2" d="M15,26.12c0-.61,0-1.2.09-1.78L8.85,30.6a18.57,18.57,0,0,0,1.23,3.21l5.12-5.12A19.56,19.56,0,0,1,15,26.12Z"/><path class="cls-2" d="M8.63,21.77a.65.65,0,0,0-.61.61,23.92,23.92,0,0,0,.16,4.83l5.27-5.28A23.78,23.78,0,0,0,8.63,21.77Z"/><path class="cls-2" d="M35.41,20.43a15.65,15.65,0,0,1-9.07,3.4,14.69,14.69,0,0,1-7.73-2.48c-.15.41-.26.74-.3.84A14,14,0,0,0,17.78,26a17.46,17.46,0,0,0,3.89,10.53,24.53,24.53,0,0,0,7.38-8.83h2.88A26.13,26.13,0,0,1,23.41,38.6a25.35,25.35,0,0,0,4,3.45l.17.13c2.77-2.21,8.9-8,8.9-16.15A15,15,0,0,0,35.41,20.43Z"/></svg>