<svg id="icons" xmlns="http://www.w3.org/2000/svg" viewBox="0 0 48 48"><defs><style>.cls-1{fill:#00377c;}.cls-2{fill:#fff;}</style></defs><title>КАРТИНГ</title><rect class="cls-1" width="48" height="48" rx="6"/><path class="cls-2" d="M19.92,19a1.63,1.63,0,0,1,0-3.26H23a4,4,0,1,0-3.92,4.77h3.18V19Z"/><path class="cls-2" d="M30.53,31A4.27,4.27,0,0,0,25,30.12l-5.6,3.5a.31.31,0,0,1-.48-.27V26.51s0,0,0,0l2.33,1a4.64,4.64,0,0,0,1.8.37h5.11a1.54,1.54,0,0,0,.88-.25l1.1-.92s0,0,0,0l7.62,9.14,0-.07,1.13-.94c.09.07.1,0,.09,0L31.38,25.7a0,0,0,0,1,0,0l2.43-2s0,0,0,0l-.94-1.13a0,0,0,0,0,0,0l-3.32,2.76h0a1.64,1.64,0,0,0-1.3-.65h-5.1a1.41,1.41,0,0,1-.54-.11l-5-2.12a3.6,3.6,0,0,0-1-.3A3.84,3.84,0,0,0,16,22h-.09a3,3,0,0,0-3,3v7.7a.16.16,0,0,1-.29.1l-1.73-2.17a1.56,1.56,0,0,1-.33-.95V25.39a1.62,1.62,0,0,0-1.77-1.62A1.7,1.7,0,0,0,7.31,25.5v5.27a1.65,1.65,0,0,0,.36,1l5.93,7.49a3.42,3.42,0,0,0,2.68,1.29h18a2,2,0,0,0,1.84-.86,2.06,2.06,0,0,0-.23-2.31ZM20.17,37.32a.16.16,0,0,1-.09-.3l6.65-4.15a1,1,0,0,1,1.28.2l3.31,4a.17.17,0,0,1-.13.27Z"/><path class="cls-2" d="M10.64,39.06a2.95,2.95,0,1,1-2.95-3A2.95,2.95,0,0,1,10.64,39.06Z"/><path class="cls-2" d="M43.86,39.08a2.95,2.95,0,1,1-2.94-2.94A2.95,2.95,0,0,1,43.86,39.08Z"/></svg>