<svg id="icons" xmlns="http://www.w3.org/2000/svg" viewBox="0 0 48 48"><defs><style>.cls-1{fill:#00377c;}.cls-2{fill:#fff;}</style></defs><title>КАЧЕЛИ НА ПИКЕ</title><rect class="cls-1" width="48" height="48" rx="9"/><path class="cls-2" d="M35.77,31V15.78l2.42-2.85a1.62,1.62,0,0,0-2.42-2.16V0H34.25V12.55l-2.49,2.93a2.41,2.41,0,0,1-1.84.85H17.76a2.43,2.43,0,0,1-1.84-.85l-2.48-2.93V0H12V10.9L12,10.82a1.63,1.63,0,1,0-2.48,2.11l2.55,3V31H6v3.25H26.6V42h3.26V34.22h1.95V42h3.26V34.22H42V31ZM13.44,31V17.59a5.66,5.66,0,0,0,4.31,2h2.39a.37.37,0,0,1,.36.37v8.17A3,3,0,0,0,22.6,31Zm11.81,0,.05,0,0,0Zm4.61,0v0l.1,0Zm-2-4.73a.94.94,0,0,1-.51-.83V19.94a.36.36,0,0,1,.36-.36h2.21a5.69,5.69,0,0,0,4.33-2h0v12a1.31,1.31,0,0,0-.28-.2Z"/><path class="cls-2" d="M26.87,11.26a3,3,0,1,1-3-3A3,3,0,0,1,26.87,11.26Z"/></svg>