<svg id="icons" xmlns="http://www.w3.org/2000/svg" viewBox="0 0 48 48"><defs><style>.cls-1{fill:#00377c;}.cls-2{fill:#aaacaf;}.cls-3{fill:#fff;}</style></defs><title>МАСТЕРСКАЯ «ОЛГИЗ»</title><rect class="cls-1" width="48" height="48" rx="6"/><line class="cls-2" x1="29.79" y1="37.38" x2="36.49" y2="30.69"/><path class="cls-3" d="M39.79,38.44l-2-8.52a.72.72,0,0,0-.2-.36l-7.21-7.21L33.48,18a0,0,0,0,0,0,0,4.45,4.45,0,0,0,.81.08,4.36,4.36,0,0,0,3.08-1.28c1.49-1.48,2.41-6.89,2.58-8l.17-1.11L39,7.91c-.61.15-6,1.45-7.53,2.94a4.33,4.33,0,0,0-1.2,3.89h0l-4.39,3.07L17,9a3.23,3.23,0,0,0-4.55,0L8.65,12.77A3.2,3.2,0,0,0,7.71,15a3.24,3.24,0,0,0,.94,2.28l8.8,8.8L8.3,36.86a2.18,2.18,0,0,0,3.08,3.07l10.73-9.15,7.15,7.14a.72.72,0,0,0,.36.2l8.52,2,2.15.5ZM30.63,16.36l1.24,1.24-2.55,3.65L27,18.91Zm-20.9-.12a1.68,1.68,0,0,1-.5-1.2,1.7,1.7,0,0,1,.5-1.2L13.54,10a1.71,1.71,0,0,1,1.2-.5A1.73,1.73,0,0,1,16,10l1.36,1.37L11.1,17.61Zm.66,22.53a.66.66,0,0,1-.93-.93L18.53,27.2,21,29.7Zm1.78-20.08,6.22-6.22L36,30.09l-6.22,6.22Zm23,19.15L31.3,37l5.35-5.35.89,3.83Z"/></svg>