<svg id="icons" xmlns="http://www.w3.org/2000/svg" viewBox="0 0 48 48"><defs><style>.cls-1{fill:#00377c;}.cls-2{fill:#fff;}</style></defs><title>МУЗЕЙ АРХЕОЛОГИИ</title><rect class="cls-1" width="48" height="48" rx="6"/><path class="cls-2" d="M33.71,24H14.29V5.64H33.71Zm-17.9-1.52H32.19V7.16H15.81Z"/><rect class="cls-2" x="19.19" y="9.44" width="9.62" height="10.71" transform="translate(38.8 -9.2) rotate(90)"/><path class="cls-2" d="M42.1,35.29V33.58c-3.31-1.78-5.38-4.58-5.38-6H35.2c0,2.59-5.08,7.66-11.22,7.66-6.36,0-11.21-5.42-11.22-7.65H11.24c0,1.64-2.06,4.25-5.12,6v1.73a14.7,14.7,0,0,0,5.12-4.07v9.33H8.66V42h6.67V40.52H12.76v-9.4A14.9,14.9,0,0,0,24,36.74,14.75,14.75,0,0,0,35.2,31.19v9.33H32.46V42h6.66V40.52h-2.4v-9.4A14.61,14.61,0,0,0,42.1,35.29Z"/></svg>