<svg id="icons" xmlns="http://www.w3.org/2000/svg" viewBox="0 0 48 48"><defs><style>.cls-1{fill:#00377c;}.cls-2{fill:#fff;}</style></defs><title>РОЛЛЕРДРОМ</title><rect class="cls-1" width="48" height="48" rx="6"/><path class="cls-2" d="M39.34,8.36a3,3,0,1,1-3-3A3,3,0,0,1,39.34,8.36Z"/><path class="cls-2" d="M26.2,40.7a1.44,1.44,0,0,1-2.87,0,1.44,1.44,0,1,1,2.87,0Z"/><path class="cls-2" d="M29.24,40.7a1.44,1.44,0,1,1-1.44-1.44A1.43,1.43,0,0,1,29.24,40.7Z"/><path class="cls-2" d="M32.27,40.7a1.44,1.44,0,1,1-1.43-1.44A1.43,1.43,0,0,1,32.27,40.7Z"/><path class="cls-2" d="M9.13,37.74a1.44,1.44,0,1,1-.2-2A1.43,1.43,0,0,1,9.13,37.74Z"/><path class="cls-2" d="M11.47,39.67a1.44,1.44,0,1,1-.2-2A1.43,1.43,0,0,1,11.47,39.67Z"/><path class="cls-2" d="M13.81,41.59a1.43,1.43,0,1,1-.19-2A1.43,1.43,0,0,1,13.81,41.59Z"/><polygon class="cls-2" points="19.54 24.66 11.01 35.36 13.52 37.43 22.16 26.6 19.54 24.66"/><path class="cls-2" d="M33.45,12.09A3.46,3.46,0,0,0,31.08,11H15.67A1.69,1.69,0,0,0,14,12.46a1.63,1.63,0,0,0,1.62,1.79h10.5a.11.11,0,0,1,.08.2l-5.33,4.81a3,3,0,0,0-.22,4.24,4.18,4.18,0,0,0,.51.44l7,5.17a.5.5,0,0,1,.19.52l-1.85,8h3.34L31.59,30a3.78,3.78,0,0,0-.76-3.23l-.08-.09-4.17-4.34a.14.14,0,0,1,0-.21L33,16.32A3.1,3.1,0,0,0,33.45,12.09Z"/></svg>