<svg id="icons" xmlns="http://www.w3.org/2000/svg" viewBox="0 0 48 48"><defs><style>.cls-1{fill:#00377c;}.cls-2{fill:#fff;}</style></defs><title>РОЗА ПИК</title><rect class="cls-1" width="48" height="48" rx="9"/><path class="cls-2" d="M12.29,32.76a4,4,0,0,1-4-4H9.84a2.49,2.49,0,0,0,2.45,2.52Z"/><path class="cls-2" d="M40.6,23.68l-8-8.62h0a4.11,4.11,0,0,0-3.14-1.47,4.17,4.17,0,0,0-4.14,4.2H22.68a4.17,4.17,0,0,0-4.14-4.2A4.09,4.09,0,0,0,15.44,15h0L7.34,23.73h0a7.14,7.14,0,0,0-2,5,7,7,0,0,0,13.77,1.57h9.82a7,7,0,0,0,13.77-1.57A7.14,7.14,0,0,0,40.6,23.68ZM12.29,34.29a5.57,5.57,0,0,1,0-11.14,5.57,5.57,0,0,1,0,11.14Zm23.42,0a5.57,5.57,0,1,1,5.45-5.57A5.52,5.52,0,0,1,35.71,34.29Z"/><path class="cls-2" d="M35.71,32.76a4,4,0,0,1-4-4h1.52a2.49,2.49,0,0,0,2.46,2.52Z"/><path class="cls-1" d="M26,26.36A2.34,2.34,0,1,1,23.67,24,2.33,2.33,0,0,1,26,26.36Z"/></svg>