<svg id="icons" xmlns="http://www.w3.org/2000/svg" viewBox="0 0 48 48"><defs><style>.cls-1{fill:#00377c;}.cls-2{fill:#fff;}</style></defs><title>РОДЕЛЬБАН</title><rect class="cls-1" width="48" height="48" rx="6"/><path class="cls-2" d="M39.46,26.93H37.34V28.4h2.12a1.75,1.75,0,0,1,1.75,1.76v.21H36.69l-5.25-6.05A2.8,2.8,0,0,0,27.52,24l-2,1.63-6-5.66a3.43,3.43,0,0,0-.49-.36,3.08,3.08,0,0,0-5.15,2.83l1.62,8H13L9.77,12.16l-3.28.58L9.58,30.07a.76.76,0,0,1-.16.61L5.89,35a1.27,1.27,0,0,0,1,2.05H37.7a5,5,0,0,0,5-5V30.16A3.23,3.23,0,0,0,39.46,26.93Zm-10.29.65a.48.48,0,0,1,.71,0l2.4,2.76h-6ZM21.08,26,23,27.77,21.51,29s-.57-2.82-.6-2.93S21,25.83,21.08,26Zm20.13,6.13a3.52,3.52,0,0,1-3.51,3.52H7.33l3-3.76H41.21Z"/><path class="cls-2" d="M17.51,17.08A3,3,0,1,0,13.39,16,3,3,0,0,0,17.51,17.08Z"/></svg>