<svg id="icons" xmlns="http://www.w3.org/2000/svg" viewBox="0 0 48 48"><defs><style>.cls-1{fill:#00377c;}.cls-2{fill:#fff;}</style></defs><title>СКАЛОДРОМ</title><rect class="cls-1" width="48" height="48" rx="6"/><path class="cls-2" d="M12.72,13.72a3,3,0,1,0-3-3A3,3,0,0,0,12.72,13.72Z"/><path class="cls-2" d="M41.38,6.31,26.25,9.43l-.12-.08a1.62,1.62,0,0,0-2.24.52l-2.71,4.37a1.42,1.42,0,0,1-1.24.69H12.78a4.62,4.62,0,0,0-3.9,2.13L7.2,19.66a3.92,3.92,0,0,0,.11,4.43L10,27.83a1.85,1.85,0,0,0,.14.14V42.21h1.52V28.47a1.66,1.66,0,0,0,.61-.27,1.61,1.61,0,0,0,.57-1.9l2.32-2.48,1.44,1.84C17.7,27.09,18,27.3,18.5,27.49l6.76,2.31a4.07,4.07,0,0,1,2.39,2.14L30,36.85l0,0-5.51,4.58,1,1.17,8.66-7.18-.8-9,3-3.53ZM24,16l2.71-4.38a1.64,1.64,0,0,0,.23-.73L39.17,8.31,35.9,18.84H27a5.18,5.18,0,0,0-3.66,1.38l-1.69,1.57a.39.39,0,0,1-.57-.05l-2.55-3.26a.18.18,0,0,1,.14-.29H20A4.72,4.72,0,0,0,24,16ZM12,25,10,22.2a.68.68,0,0,1,0-.77l1.25-1.95a.32.32,0,0,1,.53,0l2.48,3.15Zm19.76.88.77,8.73-1.89-4a7.41,7.41,0,0,0-4.29-3.84l-3-1a.46.46,0,0,1-.16-.77l2.5-2.32A2,2,0,0,1,27,22.1h7.85Z"/></svg>