<svg id="icons" xmlns="http://www.w3.org/2000/svg" viewBox="0 0 48 48"><defs><style>.cls-1{fill:#00377c;}.cls-2{fill:#fff;}</style></defs><title>ТРОПА ЗДОРОВЬЯ</title><rect class="cls-1" x="0.23" y="0.23" width="47.53" height="47.53" rx="5.94" transform="translate(-0.32 47.68) rotate(-89.24)"/><path class="cls-2" d="M28.47,8.08a2.95,2.95,0,1,1-2.9-3A3,3,0,0,1,28.47,8.08ZM16.53,20.61l1.7-5.67a3,3,0,1,0-5.69-1.71l-1.7,5.67a3,3,0,0,0,2,3.7,3.13,3.13,0,0,0,.86.12A3,3,0,0,0,16.53,20.61ZM15.7,41.53,20.38,26a.4.4,0,0,1,.72-.1l3.67,5.77a3.3,3.3,0,0,1,.49,1.43l.87,8.53,3.25,0-.91-8.9a6.53,6.53,0,0,0-1-2.83l-3.26-5.14a1.76,1.76,0,0,1-.2-1.45l1.71-5.67a.35.35,0,0,1,.63-.08l2.21,3.65a4.83,4.83,0,0,0,4,2.32l3.8.05L31,41.73l1.57,0,5.81-19.22h0a1.38,1.38,0,0,0-.24-1.32,1.93,1.93,0,0,0-1.53-.76l-3.94-.05a1.61,1.61,0,0,1-1.34-.77l-3.17-5.25a4,4,0,0,0-3.33-1.9l-1.14,0a3.39,3.39,0,0,0-3.25,2.3h0v0a.61.61,0,0,0-.05.12l-.72,2.42h0l-7.3,24.15Z"/></svg>