<svg id="icons" xmlns="http://www.w3.org/2000/svg" viewBox="0 0 48 48"><defs><style>.cls-1{fill:#00377c;}.cls-2{fill:#fff;}</style></defs><title>ЦЕНТР АКТИВНЫЙ ОТДЫХ</title><rect class="cls-1" width="48" height="48" rx="6"/><path class="cls-2" d="M23.1,9.91a2.87,2.87,0,1,0-3.5-2A2.85,2.85,0,0,0,23.1,9.91Z"/><path class="cls-2" d="M44,30.87,26.63,36a2.87,2.87,0,0,0-2.05,2.74v1.34L10.35,44.29l.43,1.45L26.1,41.21V38.73a1.33,1.33,0,0,1,1-1.28l17.33-5.12Z"/><path class="cls-2" d="M16.86,13.51a17.77,17.77,0,0,0,1.25,1.33A1.72,1.72,0,0,1,18.42,16l-.58,5.31a.66.66,0,0,0,0,.14l-2.65,19.7,3.41-1c.69-5,2-15,2.1-15.5a.53.53,0,0,1,.88-.35l2.89,2.28a1.53,1.53,0,0,1,.45,1.31l-1,7.27,3.43-1,.79-5.78a4.77,4.77,0,0,0-1.51-4.2l-.08-.08L24.3,22.29a1.17,1.17,0,0,1-.42-1l.61-5.54A.9.9,0,0,1,25,15a12.64,12.64,0,0,0,2.33-1.44l6.27-5.66a1.69,1.69,0,0,0,.29-2.23,1.62,1.62,0,0,0-2.4-.25l-6.34,5.73A3.21,3.21,0,0,1,23,12l-2.6,0a1.18,1.18,0,0,1-.93-.47l-4.33-5.8A1.69,1.69,0,0,0,13,5.26a1.62,1.62,0,0,0-.47,2.37Z"/></svg>