<svg xmlns="http://www.w3.org/2000/svg" viewBox="0 0 48 48"><defs><style>.cls-1{fill:#00377b;}.cls-2{fill:#fff;}.cls-3{font-size:12px;font-family:MyriadPro-Regular, Myriad Pro;}.cls-4{letter-spacing:-0.01em;}.cls-5{letter-spacing:0em;}.cls-6{letter-spacing:0em;}.cls-7{letter-spacing:0em;}.cls-8{letter-spacing:0em;}.cls-9{letter-spacing:-0.03em;}.cls-10{letter-spacing:0em;}.cls-11{letter-spacing:-0.01em;}.cls-12{letter-spacing:0.04em;}.cls-13{letter-spacing:-0.02em;}.cls-14{letter-spacing:0em;}.cls-15{letter-spacing:0.03em;}.cls-16{letter-spacing:0em;}.cls-17{letter-spacing:-0.01em;}.cls-18{letter-spacing:0.01em;}.cls-19{letter-spacing:-0.03em;}.cls-20{letter-spacing:0.03em;}.cls-21{letter-spacing:-0.05em;}.cls-22{letter-spacing:-0.01em;}.cls-23{letter-spacing:-0.02em;}.cls-24{letter-spacing:0em;}.cls-25{letter-spacing:0em;}.cls-26{letter-spacing:-0.02em;}</style></defs><title>ЭТНО-КОМПЛЕКС «МОЯ РОССИЯ»</title><g id="icons"><g id="Слой_2" data-name="Слой 2"><g id="Слой_1-2" data-name="Слой 1-2"><rect class="cls-1" width="48" height="48" rx="6"/><path class="cls-2" d="M20.9,25.43a3.12,3.12,0,1,0-3.11,3.11h0A3.11,3.11,0,0,0,20.9,25.43Zm-4.81,0a1.69,1.69,0,1,1,1.69,1.69h0a1.69,1.69,0,0,1-1.69-1.69Z"/><path class="cls-2" d="M33.82,9.36V6.7H29.67V8.12H32.4V9.33l-3.68,6.84H25.24v1.42h3v4.8H25.15L18.5,16.55v-4H14.82V14h2.25v2.56l-6.72,5.84H7.14v1.42h3.05v5.71h1.42V23.18l6.17-5.37,6.84,6H29.7V17.59h6.86V32.17H34.25l-7.39-6.45-7.38,6.44H16v1.42h3v7.08H24V35.22h5.8v5.45h4.95V33.6h6.18V32.18H38V17.59h2.91V16.17H37.48Zm-3.49,6.81L33.1,11l2.77,5.14Z"/></g></g></g><g id="txt"><text class="cls-3" transform="translate(0.01 -731.58)">Т<tspan class="cls-4" x="5.96" y="0">Р</tspan><tspan class="cls-5" x="12.25" y="0">О</tspan><tspan class="cls-6" x="20.47" y="0">Л</tspan><tspan x="27.64" y="0">ЛЕЙ «П</tspan><tspan class="cls-7" x="63.8" y="0">О</tspan><tspan x="72.02" y="0">Л</tspan><tspan class="cls-8" x="79.15" y="0">Ё</tspan><tspan x="85.12" y="0">Т О</tspan><tspan class="cls-9" x="101.89" y="0">Р</tspan><tspan x="107.93" y="0">ЛА»</tspan><tspan x="0" y="88">Т</tspan><tspan class="cls-4" x="5.96" y="88">Р</tspan><tspan class="cls-5" x="12.25" y="88">О</tspan><tspan class="cls-6" x="20.47" y="88">Л</tspan><tspan x="27.64" y="88">ЛЕЙ НА ПИКЕ</tspan><tspan x="0" y="176">Т</tspan><tspan class="cls-4" x="5.96" y="176">Р</tspan><tspan x="12.25" y="176">ОПА </tspan><tspan class="cls-10" x="38.08" y="176">З</tspan><tspan class="cls-11" x="43.93" y="176">Д</tspan><tspan x="51.38" y="176">О</tspan><tspan class="cls-4" x="59.65" y="176">Р</tspan><tspan x="65.94" y="176">ОВЬЯ</tspan><tspan x="0" y="264">Т</tspan><tspan class="cls-4" x="5.96" y="264">Р</tspan><tspan x="12.25" y="264">ОПА Й</tspan><tspan class="cls-8" x="45.97" y="264">Е</tspan><tspan x="51.94" y="264">ТИ</tspan><tspan x="0" y="352">Т</tspan><tspan class="cls-4" x="5.96" y="352">Р</tspan><tspan x="12.25" y="352">ОПА П</tspan><tspan class="cls-12" x="45.74" y="352">У</tspan><tspan x="52.5" y="352">ТЬ К </tspan><tspan class="cls-4" x="76.59" y="352">В</tspan><tspan class="cls-13" x="83" y="352">О</tspan><tspan class="cls-11" x="91.02" y="352">Д</tspan><tspan class="cls-14" x="98.47" y="352">ОП</tspan><tspan class="cls-15" x="114.41" y="352">А</tspan><tspan class="cls-6" x="122.06" y="352">Д</tspan><tspan x="129.66" y="352">АМ</tspan><tspan x="0" y="440">Т</tspan><tspan class="cls-4" x="5.96" y="440">Р</tspan><tspan x="12.25" y="440">ОПА ЧЕМПИОНОВ ВЫШЕ 1600</tspan><tspan x="0" y="528">Т</tspan><tspan class="cls-4" x="5.96" y="528">Р</tspan><tspan x="12.25" y="528">ОПА ЧЕМПИОНОВ НИЖЕ 1600</tspan><tspan class="cls-16" x="0" y="616">Х</tspan><tspan class="cls-17" x="6.79" y="616">А</tspan><tspan x="13.96" y="616">СКИ </tspan><tspan class="cls-18" x="37.86" y="616">Х</tspan><tspan class="cls-12" x="44.83" y="616">У</tspan><tspan class="cls-19" x="51.59" y="616">Т</tspan><tspan x="57.13" y="616">ОР</tspan><tspan x="0" y="704">ЦЕНТР А</tspan><tspan class="cls-20" x="43.79" y="704">К</tspan><tspan x="50.64" y="704">ТИВНЫЙ </tspan><tspan class="cls-4" x="98.22" y="704">О</tspan><tspan class="cls-21" x="106.39" y="704">Т</tspan><tspan x="111.75" y="704">ДЫХ</tspan><tspan class="cls-22" x="0" y="792">Э</tspan><tspan x="6.72" y="792">ТНО-</tspan><tspan class="cls-23" x="32.46" y="792">К</tspan><tspan class="cls-24" x="38.74" y="792">О</tspan><tspan x="46.97" y="792">М</tspan><tspan class="cls-6" x="56.62" y="792">П</tspan><tspan x="64.32" y="792">ЛЕ</tspan><tspan class="cls-23" x="77.35" y="792">К</tspan><tspan x="83.63" y="792">С «М</tspan><tspan class="cls-25" x="107.81" y="792">О</tspan><tspan class="cls-14" x="116.12" y="792">Я </tspan><tspan class="cls-4" x="125.18" y="792">Р</tspan><tspan x="131.47" y="792">О</tspan><tspan class="cls-26" x="139.74" y="792">С</tspan><tspan x="146.46" y="792">СИЯ»</tspan></text></g></svg>