<svg id="icons" xmlns="http://www.w3.org/2000/svg" viewBox="0 0 48 48"><defs><style>.cls-1{fill:#00377b;}.cls-2{fill:#fff;}</style></defs><title>ЭТНО-ХУТОР «ШИШИН ДВОР»</title><g id="Слой_2" data-name="Слой 2"><g id="Слой_1-2" data-name="Слой 1-2"><rect class="cls-1" width="48" height="48" rx="6"/><polygon class="cls-2" points="16.56 19.98 21.15 19.98 21.15 24.76 22.53 24.76 22.53 18.61 15.18 18.61 15.18 24.76 16.56 24.76 16.56 19.98"/><polygon class="cls-2" points="17.91 9.28 24.76 17.27 28.87 17.27 28.87 15.89 25.39 15.89 17.91 7.16 10.43 15.89 6.95 15.89 6.95 17.27 10.34 17.27 10.34 24.76 11.72 24.76 11.72 16.57 11.65 16.57 17.91 9.28"/><path class="cls-2" d="M28.76,20.05v1.37a10.75,10.75,0,0,1,5.84,1.39.44.44,0,0,1,.14.6.39.39,0,0,1-.08.1L29.54,28a2.45,2.45,0,0,1-1.61.6H15.21V30h1.65A1.11,1.11,0,0,1,18,31.07h0v10h1.37l0-4.19a1,1,0,0,1,1-1l9.59,0a1,1,0,0,1,1,1h0v4.21h1.38v-4.6a3.18,3.18,0,0,1,.26-1.25l3-6.75c.21-.48.52-.63,1-.48l2.71.88A1.7,1.7,0,0,0,41,28.36,12.49,12.49,0,0,0,28.76,20.05Z"/></g></g></svg>