<svg id="icons" xmlns="http://www.w3.org/2000/svg" viewBox="0 0 48 48"><defs><style>.cls-1{fill:#00377c;}.cls-2{fill:#fff;}</style></defs><title>B-ONE</title><rect class="cls-1" width="48" height="48" rx="6"/><path class="cls-2" d="M44.13,30.5,26.79,35.61a2.9,2.9,0,0,0-2.05,2.75V39.7L10.51,43.91,11,45.37l15.31-4.54V38.36a1.36,1.36,0,0,1,1-1.29L44.56,32Z"/><path class="cls-2" d="M16.31,18.86a1.88,1.88,0,1,0-2.46-.95A1.87,1.87,0,0,0,16.31,18.86Z"/><path class="cls-2" d="M8.12,26.75,13.74,29c.1,0,.53.23.63.44,0,.05,1.8,4.08,2.35,5.31l2-.9-2.41-5.47a3,3,0,0,0-1-1.11L11.72,25a.14.14,0,0,1,0-.21l2.38-2.64a.17.17,0,0,1,.21,0l2.08,1.33a1.12,1.12,0,0,0,.58.17,1.06,1.06,0,0,0,.46-.1l3.66-1.68a1.09,1.09,0,0,0,.49-1.54,1.13,1.13,0,0,0-1.45-.41l-3,1.36a.21.21,0,0,1-.19,0l-3.69-2.35a1.61,1.61,0,0,0-2.08.48L7.38,23.6a2,2,0,0,0,.16,2.84A3.13,3.13,0,0,0,8.12,26.75Z"/><path class="cls-2" d="M11.56,40.08a4.56,4.56,0,0,0,.22-8.75l.36-1.79-1-.38-.39,2a4.33,4.33,0,0,0-1.56.13,4.57,4.57,0,0,0-2.61,7,4.6,4.6,0,0,0,3.79,2A4.16,4.16,0,0,0,11.56,40.08Zm-4.1-2.41a3.55,3.55,0,0,1,2.92-5.55h.2L9.87,35.7l1,.2.71-3.57a3.56,3.56,0,0,1,2.13,4.58,3.55,3.55,0,0,1-6.25.76Z"/><path class="cls-2" d="M18.75,24.19l-1.25.57L17,27.2l.72,1.6.71-3.59,2.36,1.64a3.63,3.63,0,0,0-.31.66,4.56,4.56,0,0,0,4.28,6.16,4.16,4.16,0,0,0,1.16-.16,4.56,4.56,0,0,0,2.6-7,4.56,4.56,0,0,0-4.94-1.84A4.49,4.49,0,0,0,21.4,26Zm2.89,3.24,2.95,2.05.58-.84-2.93-2a3.62,3.62,0,0,1,1.62-.94,3.42,3.42,0,0,1,.9-.12,3.55,3.55,0,1,1-3.32,2.31A3.36,3.36,0,0,1,21.64,27.43Z"/><path class="cls-2" d="M33.89,11.44a1.89,1.89,0,1,0-2.29-1.31A1.88,1.88,0,0,0,33.89,11.44Z"/><path class="cls-2" d="M28.21,21a2,2,0,0,1-2-2V15.26a2,2,0,1,1,4,0V19A2,2,0,0,1,28.21,21Z"/><path class="cls-2" d="M37.64,23.63l1.7,4.06,2.08-.61-2.09-5a1.13,1.13,0,0,0-.46-.51l-3.28-1.92a.58.58,0,0,1-.28-.49V15.52a.17.17,0,0,1,.28-.13l1.81,1.53a3.58,3.58,0,0,0,3.42.81l2-.57v9.5l1-.3V16h0a1.26,1.26,0,0,0,0-.27A1.07,1.07,0,0,0,42.47,15l-2.23.63a1.45,1.45,0,0,1-1.39-.34l0,0-2.92-2.48-.06,0A2.1,2.1,0,0,0,34,12.43l-1.2.33a2,2,0,0,0-1.47,1.91v17.6l2.16-.64v-10a.41.41,0,0,1,.61-.35l3,1.75A1.31,1.31,0,0,1,37.64,23.63Z"/></svg>