<svg id="icons" xmlns="http://www.w3.org/2000/svg" viewBox="0 0 48 48"><defs><style>.cls-1{fill:#00377c;}.cls-2{fill:#fff;}</style></defs><title>ROSA BEACH</title><rect class="cls-1" width="48" height="48" rx="6"/><path class="cls-2" d="M10.09,41.14h1.76l3-5.14H34.47l3,5.14h1.75l-3-5.14h4.34a1.63,1.63,0,0,0,0-3.26H20.21s7.92-13.73,8-13.82a1.13,1.13,0,0,1,.21-.22,4,4,0,0,1,5.74,3.4.74.74,0,0,0,.38.62.76.76,0,0,0,.73,0,3.95,3.95,0,0,1,5.5,2,.77.77,0,0,0,.7.46h.13a.77.77,0,0,0,.63-.69A17.52,17.52,0,0,0,33.5,8.19h0a17.53,17.53,0,0,0-18.42.6.76.76,0,0,0,.52,1.38A4,4,0,0,1,20,14a.77.77,0,0,0,.37.63.78.78,0,0,0,.74,0A4,4,0,0,1,27,17.86a.67.67,0,0,1-.08.28c-.07.11-8.42,14.6-8.42,14.6h-3.1l-6.7-7.49a1.63,1.63,0,0,0-2.43,2.17l7.17,8Z"/></svg>