<svg id="icons" xmlns="http://www.w3.org/2000/svg" viewBox="0 0 48 48"><defs><style>.cls-1{fill:#00377c;}.cls-2{fill:#fff;}</style></defs><title>АРБАЛЕТНО-ЛУЧНЫЙ ТИР</title><path class="cls-1" d="M48,42a6,6,0,0,1-6,6L6,48a6,6,0,0,1-6-6V6A6,6,0,0,1,6,0L42,0a6,6,0,0,1,6,6Z"/><path class="cls-2" d="M19.74,12.08a3,3,0,1,0-3-3A3,3,0,0,0,19.74,12.08Z"/><path class="cls-2" d="M33.41,3.07,32.8,4.21a14.4,14.4,0,0,1,7.62,12.94A14.36,14.36,0,0,1,32.8,30l.61,1.15a15.64,15.64,0,0,0,8.3-14A15.68,15.68,0,0,0,33.41,3.07Z"/><path class="cls-2" d="M23.35,17.55H36.1a1.64,1.64,0,0,0,1.48-2.31,1.59,1.59,0,0,0-1.49-.94L17,14.31l-.44-.13-3.94-2.76a1.65,1.65,0,0,0-2.05.06A1.62,1.62,0,0,0,10.73,14l4.56,3.16a1,1,0,0,1,.37.5L18,24.89a2,2,0,0,1-.07,1.45L11,41.93s0,0,0,0H14.5l7-15.72a.46.46,0,0,1,.85.05L27.48,42h3.41L23.06,18A.31.31,0,0,1,23.35,17.55Z"/></svg>