<svg id="icons" xmlns="http://www.w3.org/2000/svg" viewBox="0 0 48 48"><defs><style>.cls-1{fill:#00377c;}.cls-2{fill:#fff;}</style></defs><title>БАТУТЫ</title><rect class="cls-1" width="48" height="48" rx="6"/><path class="cls-2" d="M42.8,33.77C42.8,30,31.58,28.69,24,28.69S5.28,30,5.28,33.77c0,1.25,1.27,2.23,3.23,3v5.36H10V37.26a55.79,55.79,0,0,0,13.21,1.58V44h1.52V38.84a56.27,56.27,0,0,0,13.15-1.55v4.82h1.52v-5.3C41.48,36.05,42.8,35.05,42.8,33.77ZM24,37.32C12.72,37.32,6.8,35,6.8,33.77S12.72,30.21,24,30.21s17.24,2.31,17.24,3.56S35.36,37.32,24,37.32Z"/><path class="cls-2" d="M27,7.1a3,3,0,1,1-3-3A3,3,0,0,1,27,7.1Z"/><path class="cls-2" d="M26.94,20.33l.28-5.22a.62.62,0,0,1,.35-.51,3.68,3.68,0,0,0,.44-.23l7.73-4.69a1.62,1.62,0,0,0,.45-2.37A1.68,1.68,0,0,0,34,7l-6.9,4.18a4.18,4.18,0,0,1-2.14.61H23.1A4.18,4.18,0,0,1,21,11.13L14,6.9a1.63,1.63,0,0,0-2.4.91,1.71,1.71,0,0,0,.79,1.92L20,14.37a3.58,3.58,0,0,0,.48.24.6.6,0,0,1,.35.52l.25,5.2a.31.31,0,0,1-.24.31L8.43,23.27l.68,3.19,14.58-3.09a1.84,1.84,0,0,1,.81,0l14.43,3.09.67-3.19L27.18,20.64A.3.3,0,0,1,26.94,20.33Z"/></svg>