<svg id="icons" xmlns="http://www.w3.org/2000/svg" viewBox="0 0 48 48"><defs><style>.cls-1{fill:#00377c;}.cls-2{fill:#fff;}</style></defs><title>ВЕРЁВОЧНЫЙ ПАРК FUNГРАД</title><rect class="cls-1" x="0.02" y="0.02" width="47.95" height="47.95" rx="5.99" transform="translate(-0.03 0.03) rotate(-0.08)"/><path class="cls-2" d="M40.43,36.19V11c1.39-.35,2.21-.62,2.32-.65l-.64-1.9A64.28,64.28,0,0,1,23.78,11,64.62,64.62,0,0,1,5.45,8.4l-.63,1.9a47.59,47.59,0,0,0,5,1.27V36.82c-2.7-.58-4.31-1.1-4.35-1.11L4.82,37.6a65.37,65.37,0,0,0,19,2.72,65.48,65.48,0,0,0,19-2.72l-.64-1.89S41.49,35.91,40.43,36.19ZM11.13,17.34h4.66v4.44H11.13Zm28,10.21H34.44V23.11H39.1Zm-6,0h-16V23.11h16Zm6-5.77H34.44V17.34H39.1Zm-6,0h-16V17.34h16Zm-22,1.33h4.66v4.44H11.13Zm0,5.77h4.66v4.44H11.13Zm6,0h16v4.44h-16Zm17.32,0H39.1v4.44H34.44Zm4.66,5.78v1.86c-1.24.3-2.82.63-4.66.93V34.66ZM39.1,16H34.44V12.17c1.81-.28,3.38-.6,4.66-.89Zm-6-3.64V16h-16V12.68c2.05.2,4.29.33,6.66.33A69.42,69.42,0,0,0,33.11,12.37Zm-17.32.17V16H11.13V11.83C12.5,12.09,14.07,12.34,15.79,12.54ZM11.13,34.66h4.66v3.16c-1.73-.21-3.3-.46-4.66-.73Zm6,3.31V34.66h16v3a67.37,67.37,0,0,1-9.33.67A65.42,65.42,0,0,1,17.12,38Z"/><path class="cls-2" d="M40.43,36.19V11c1.39-.35,2.21-.62,2.32-.65l-.64-1.9A64.28,64.28,0,0,1,23.78,11,64.62,64.62,0,0,1,5.45,8.4l-.63,1.9a47.59,47.59,0,0,0,5,1.27V36.82c-2.7-.58-4.31-1.1-4.35-1.11L4.82,37.6a65.37,65.37,0,0,0,19,2.72,65.48,65.48,0,0,0,19-2.72l-.64-1.89S41.49,35.91,40.43,36.19ZM11.13,17.34h4.66v4.44H11.13Zm28,10.21H34.44V23.11H39.1Zm-6,0h-16V23.11h16Zm6-5.77H34.44V17.34H39.1Zm-6,0h-16V17.34h16Zm-22,1.33h4.66v4.44H11.13Zm0,5.77h4.66v4.44H11.13Zm6,0h16v4.44h-16Zm17.32,0H39.1v4.44H34.44Zm4.66,5.78v1.86c-1.24.3-2.82.63-4.66.93V34.66ZM39.1,16H34.44V12.17c1.81-.28,3.38-.6,4.66-.89Zm-6-3.64V16h-16V12.68c2.05.2,4.29.33,6.66.33A69.42,69.42,0,0,0,33.11,12.37Zm-17.32.17V16H11.13V11.83C12.5,12.09,14.07,12.34,15.79,12.54ZM11.13,34.66h4.66v3.16c-1.73-.21-3.3-.46-4.66-.73Zm6,3.31V34.66h16v3a67.37,67.37,0,0,1-9.33.67A65.42,65.42,0,0,1,17.12,38Z"/><path class="cls-1" d="M18.56,38.11c-.68-.06-1.34-.12-2-.2l2.13-16.09a.71.71,0,0,1,0-.2l.44-4.1a10.13,10.13,0,0,1-.88-1l-3.65-4.88A3.37,3.37,0,0,1,14,9,3.34,3.34,0,0,1,15.6,6.8a3.24,3.24,0,0,1,1.69-.47,3.46,3.46,0,0,1,2.76,1.39l.87,1.16a3.66,3.66,0,0,1,3.47-2.53,3.71,3.71,0,0,1,3.55,2.71,2.73,2.73,0,0,1,.1.48l2.63-2.38a3.35,3.35,0,0,1,2.25-.86,3.34,3.34,0,0,1,2.19,5.88l-5.2,4.71a9.09,9.09,0,0,1-1.77,1.18l-.36,3.37,1.43,1.13.16.14a6,6,0,0,1,1.88,5.23l-.65,4.8L30.43,34l-1.23.37-2.85.86-2.78.84c-.08.6-.15,1.16-.22,1.67l-.08.56c-1.45,0-2.84-.06-4.17-.16Z"/><path class="cls-2" d="M26.64,10.81a2.32,2.32,0,0,1-1.58,1.55,2.28,2.28,0,0,1-.63.09,2.38,2.38,0,0,1-2.27-1.74,2,2,0,0,1-.05-.24,2.34,2.34,0,0,1,1.65-2.7,2.28,2.28,0,0,1,.63-.09,2.41,2.41,0,0,1,2.25,3.13Z"/><path class="cls-2" d="M26.23,17.19l-.5,4.61a.92.92,0,0,0,.35.83l1.86,1.49a.21.21,0,0,1,.08.06,4,4,0,0,1,1.25,3.49l-.65,4.79-2.85.87.83-6a1.3,1.3,0,0,0-.38-1.09l-2.4-1.89a.5.5,0,0,0-.3-.11.44.44,0,0,0-.43.41c-.08.42-1.16,8.68-1.73,12.86l-2.26.68-.54,0L20.71,22v-.12l.47-4.41a1.44,1.44,0,0,0-.25-1c-.28-.29-.78-.76-1-1.1l-3.65-4.89a1.35,1.35,0,0,1,.39-2,1.22,1.22,0,0,1,.66-.18,1.48,1.48,0,0,1,1.16.59l3.61,4.82a1,1,0,0,0,.77.38l2.16,0a2.65,2.65,0,0,0,1.76-.68L32,8.64a1.36,1.36,0,0,1,.91-.34A1.34,1.34,0,0,1,34,8.85a1.42,1.42,0,0,1-.24,1.85l-5.2,4.72a11.89,11.89,0,0,1-1.94,1.19A.75.75,0,0,0,26.23,17.19Z"/></svg>