<svg id="icons" xmlns="http://www.w3.org/2000/svg" viewBox="0 0 48 48"><defs><style>.cls-1{fill:#00377c;}.cls-2{fill:#fff;}</style></defs><title>ДЕТСКИЙ КЛУБ В ГОД</title><rect class="cls-1" width="48" height="48" rx="6"/><path class="cls-2" d="M42.37,24.26c-.64-1.34-1.81-1.66-3.57-1.23-.67.16-2.58.58-4.6.85l-2.4-7.63a.59.59,0,0,0-.5-.44.64.64,0,0,0-.58.38L29.48,18.6l-2-6.3c-.13-.41-.33-.58-.56-.6a.71.71,0,0,0-.7.4l-1.76,3L22.59,8.24c-.12-.47-.3-1.32-.91-1.32s-.86.73-1.07,1.18c-.51,1.11-1.14,2.61-2.15,5.19L14.54,24A49.78,49.78,0,0,1,9.2,23c-1.76-.43-2.93-.11-3.57,1.23a3.08,3.08,0,0,0,1,3.46A19.4,19.4,0,0,0,12,30.78l-1.13,3.06a3,3,0,0,0-.26,1.24A2.89,2.89,0,0,0,13.85,38a2.94,2.94,0,0,0,2.88-1.88H31.79a3.15,3.15,0,0,0,3,1.88,2.92,2.92,0,0,0,2.14-.86,2.68,2.68,0,0,0,.76-2,3.77,3.77,0,0,0-.35-1.33l0-.08-1-3.12a18.91,18.91,0,0,0,5.09-2.93A3.08,3.08,0,0,0,42.37,24.26Zm-15.61.38A1.4,1.4,0,1,1,25.32,26,1.43,1.43,0,0,1,26.76,24.64Zm-5.92,0A1.4,1.4,0,1,1,19.4,26,1.43,1.43,0,0,1,20.84,24.64Zm10.66,6.3c-1.69.95-5.46,1.45-7.39,1.45-1.74,0-6.57-.57-7.86-1.79A.78.78,0,0,1,16,30a1.09,1.09,0,0,1,1.07-1.14,7.89,7.89,0,0,1,1.22.33,18.8,18.8,0,0,0,5.81.94,17.48,17.48,0,0,0,5.46-.83A11.13,11.13,0,0,1,31,28.87a1.07,1.07,0,0,1,.48,2.07Z"/></svg>