<svg id="icons" xmlns="http://www.w3.org/2000/svg" viewBox="0 0 48 48"><defs><style>.cls-1{fill:#00377c;}.cls-2{fill:#fff;fill-rule:evenodd;}</style></defs><title>ЙЕТИ ПАРК ГОРНАЯ ЗОНА</title><rect class="cls-1" width="48" height="48" rx="6"/><path class="cls-2" d="M17,11l.48-.06s.06,0,0-.09-.11-.25-.13-.28a.09.09,0,0,0-.11-.05l-.56.17c-.05,0-.06.05,0,.08a1.43,1.43,0,0,0,.13.16A.2.2,0,0,0,17,11Z"/><path class="cls-2" d="M39.68,23.47c.2,0,.56-.08.59-.33.06-.47-.79-.26-1-.49s0-.24.11-.3.69-.2.61-.48-.34-.23-.51-.27a4.22,4.22,0,0,1-1-.23,2.7,2.7,0,0,1-1.17-1.59c-.28-.76-.44-1.56-.65-2.35a15,15,0,0,0-2.33-5.58A10.94,10.94,0,0,0,29.6,8.49a10.21,10.21,0,0,0-3.08-.65,9,9,0,0,0-3.05.41,1.31,1.31,0,0,1-1.31-.13,12,12,0,0,1-.82-.92,2.46,2.46,0,0,1-.56-.76c-.14-.39.51-.62.13-1a.87.87,0,0,0-.3-.16,4.34,4.34,0,0,0-.81-.19A1.4,1.4,0,0,1,19.16,5c-.28-.22,0-1.07-.58-.92a2.13,2.13,0,0,0-.93.66,2.61,2.61,0,0,1-.47.4c-.25.13-.21-.23-.45-.3s-.57.47-.64.64a2.26,2.26,0,0,0,.12,1.23,1.09,1.09,0,0,1,0,.31.82.82,0,0,1-.12.25c-.3.49-.6.85-.86,1.37a1.38,1.38,0,0,0-.16,1c0,.08.2.17.31.13s.64-.23,1.36-.44l2.45-.78a1.63,1.63,0,0,1,2,.95l.35.88-1.41.56-.28-.71a.3.3,0,0,0-.37-.17l-.78.25.09.35a1.2,1.2,0,0,1-.17,1,1.18,1.18,0,0,1-.85.53l-.64.09H17a1.49,1.49,0,0,1-1.14-.53s-.72-.84-.75-.89-.1-.09-.18,0-.59.42-.45.82c.07.23.31.41.35.64s-.35.53-.43.84c-.26,1.07,2,1.53,1.74,3a3.75,3.75,0,0,0,0,2.62c.29.62.93,1.42.76,2.16-.11.5-1.11.86-2.22,1.64a6.83,6.83,0,0,0-2.55,2.86A3.35,3.35,0,0,0,12,28.16a1,1,0,0,0,.48.57.46.46,0,0,0,.64-.17,8.17,8.17,0,0,0,.22-1.2,1.53,1.53,0,0,1,.69-.92.68.68,0,0,1,.2-.07.22.22,0,0,1,.19.06c.24.24-.07.78-.2,1-.27.44.09.74.49.47a3.85,3.85,0,0,0,1-1,3.35,3.35,0,0,0,.25-1,2.1,2.1,0,0,1,.45-.71,12.14,12.14,0,0,1,1-.88,6.21,6.21,0,0,0,1.34-1.56,3.17,3.17,0,0,0-.28-3.31l-.12-.13a3.89,3.89,0,0,1-1.16-2.23l1.5-.2a2.53,2.53,0,0,0,.8,1.43l.13.14a4.26,4.26,0,0,1,.5.75,3.61,3.61,0,0,1,.39,1.16,6.41,6.41,0,0,0,.31,1.31,15.31,15.31,0,0,0,.92,1.4c.4.78-.06,1.05-.52,1.68-1,1.33-2,2.61-2.88,4-.14.21-.26.43-.39.65a2.61,2.61,0,0,0-.36.84c0,.14-.06.27-.08.41-.07.38-.13.77-.2,1.16-.16,1-.32,2-.47,3-.13.84-.25,1.69-.41,2.52-.1.52-.26.94-.82,1.06-.12,0-.25,0-.37.06-.92.09-1.84.23-2.75.35a4.94,4.94,0,0,1-.86,0,4.75,4.75,0,0,0-1.25.07c-.55.15-.62.62-.37,1.07a4.16,4.16,0,0,0,2.76,1.52c.51.12,1,.32,1.5.47s1,.29,1.45.4c.22,0,.44.12.66.18.59.18,1.26.57,1.88.27a1.73,1.73,0,0,0,.79-1.12,2,2,0,0,0,.07-.23,15,15,0,0,1,2.05-3.85,6.8,6.8,0,0,0,.95-4.53,7.91,7.91,0,0,1-.13-.85,1.06,1.06,0,0,1,.62-1A9.1,9.1,0,0,0,24.18,30a4.68,4.68,0,0,1,.55-.54c.13-.11.32-.28.5-.26.49.05.57,1.22.63,1.56a3.74,3.74,0,0,0,.43,1.54,4.9,4.9,0,0,0,1.3,1c1.1.75,2.23,1.45,3.34,2.19.66.44,1.68,1,1.62,1.94-.07,1.1-1.22,2.22-2,2.91-.36.3-1.47.89-1.33,1.2s1.43.62,1.79.63a7.77,7.77,0,0,0,4.54-2c.61-.49,1.11-1,1.71-1.54a2.05,2.05,0,0,0,.85-2c-.14-.77-.92-1-1.47-1.4C35,34.15,34.41,32.08,32.74,31c-.64-.42-2-1.14-1.81-2.11a28.87,28.87,0,0,1,.89-3.18,8.19,8.19,0,0,0-.39-5.78,5,5,0,0,0-1-1.63,6,6,0,0,0-1.68-1.18l-.38-.21a4.89,4.89,0,0,1-2.69-2.76l1.47-.4c.22.83,1.05,1.34,1.95,1.83l.36.19a12.79,12.79,0,0,1,1.27.75,6.94,6.94,0,0,1,1.68,1.94c.87,1.39.82,3.16,1.83,4.47a5.28,5.28,0,0,0,4.43,2c.37,0,1.09-.2,1.18-.66,0-.19-.34-.25-.45-.33C39.07,23.67,39.45,23.53,39.68,23.47Z"/></svg>