<svg id="icons" xmlns="http://www.w3.org/2000/svg" viewBox="0 0 48 48"><defs><style>.cls-1{fill:#00377c;}.cls-2{fill:#fff;}</style></defs><title>КАМЕННЫЙ СТОЛБ</title><rect class="cls-1" width="48" height="48" rx="6"/><path class="cls-2" d="M11.06,45.25l-.43-1.44,13.94-4.13V38.44a2.9,2.9,0,0,1,2.08-2.78l16.92-5L44,32.11l-16.93,5a1.43,1.43,0,0,0-1,1.34v2.37Z"/><path class="cls-2" d="M20.21,9.18a2.81,2.81,0,1,0-3.43-1.95A2.79,2.79,0,0,0,20.21,9.18Z"/><path class="cls-2" d="M11.73,23.41a3,3,0,0,1-3-3V14.89a3,3,0,1,1,5.94,0v5.55A3,3,0,0,1,11.73,23.41Z"/><path class="cls-2" d="M25.81,27.39l2.54,6.07,3.11-.92-3.13-7.48a1.55,1.55,0,0,0-.68-.77l-4.9-2.87a.85.85,0,0,1-.42-.74v-5.4a.26.26,0,0,1,.42-.2l2.7,2.29a5.42,5.42,0,0,0,3.66,1.42,5.09,5.09,0,0,0,1.45-.21l3-.84V31.92l1.5-.45V16.06h0a1.93,1.93,0,0,0-.06-.41,1.62,1.62,0,0,0-2-1.11l-3.33,1a2.23,2.23,0,0,1-2.08-.5l-.06-.05-4.36-3.7a.27.27,0,0,0-.08-.07,3.19,3.19,0,0,0-2.74-.51l-1.79.49A3,3,0,0,0,16.39,14V40.29l3.22-.95v-15a.61.61,0,0,1,.92-.53L25,26.47A1.89,1.89,0,0,1,25.81,27.39Z"/></svg>