<svg id="icons" xmlns="http://www.w3.org/2000/svg" viewBox="0 0 48 48"><defs><style>.cls-1{fill:#00377c;}.cls-2{fill:#fff;}</style></defs><title>КВЕСТ «ПОГРУЖЕНИЕ»</title><rect class="cls-1" width="48" height="48" rx="6"/><path class="cls-2" d="M19,33.51a4.34,4.34,0,0,0-4.33-4.33H13.58a4.34,4.34,0,0,0-4.33,4.33v4.2A4.34,4.34,0,0,0,13.58,42h1.09A4.33,4.33,0,0,0,19,37.71v-.47H29.79V40.6h1.53V37.24h3.09V40.6h1.52V37.24H39V34H19Zm-1.52,4.2a2.81,2.81,0,0,1-2.81,2.81H13.58a2.81,2.81,0,0,1-2.81-2.81v-4.2a2.81,2.81,0,0,1,2.81-2.81h1.09a2.81,2.81,0,0,1,2.81,2.81Z"/><rect class="cls-2" x="20.21" y="4.64" width="7.58" height="3.25"/><path class="cls-2" d="M29.27,19.77,25.71,23A2.92,2.92,0,0,0,24,22.44a3,3,0,1,0,2.94,3,2.93,2.93,0,0,0-.28-1.25l3.63-3.28Z"/><path class="cls-2" d="M24,10.63A15.28,15.28,0,0,0,8.74,25.89c0,.31,0,.61,0,.92H12c0-.31,0-.61,0-.92a12,12,0,0,1,24,0c0,.31,0,.61,0,.92h3.26c0-.31,0-.61,0-.92A15.28,15.28,0,0,0,24,10.63Z"/></svg>