<svg id="icons" xmlns="http://www.w3.org/2000/svg" viewBox="0 0 48 48"><defs><style>.cls-1{fill:#00377c;}.cls-2{fill:#fff;}</style></defs><title>ЛЕТНИЙ ТЮБИНГ</title><rect class="cls-1" width="48" height="48" rx="9"/><rect class="cls-2" x="18.12" y="22.06" width="1.52" height="28.08" transform="translate(-21.63 40.43) rotate(-68.49)"/><path class="cls-2" d="M22.32,10.37A3,3,0,1,0,19,7.91,2.94,2.94,0,0,0,22.32,10.37Z"/><path class="cls-2" d="M43.48,25.18,36.8,21.09a5.22,5.22,0,0,0-2.17-.76,1.86,1.86,0,0,0-.34,0H27.07a.78.78,0,0,0-.78.79.79.79,0,0,0,.47.72h0l5.85,2.29A5.93,5.93,0,0,1,36.44,30a5.78,5.78,0,0,1-1.2,3.1L9.49,23a6,6,0,0,1,.37-1.61,5.8,5.8,0,0,1,7.51-3.28l2.27.9v1.22a3.2,3.2,0,0,0,1,2.3L23.08,25a1.67,1.67,0,0,0,1.14.46,1.6,1.6,0,0,0,1.16-.5,1.63,1.63,0,0,0,0-2.3L23,20.36a.36.36,0,0,1-.12-.28V14.35a3.32,3.32,0,0,0-.34-1.45,3.14,3.14,0,0,0-2.82-1.67,1.84,1.84,0,0,0-.31,0,3.44,3.44,0,0,0-.64.12l-.11,0a3,3,0,0,0-2,2.82v2.13A7.3,7.3,0,0,0,8.57,26.46a7.24,7.24,0,0,0,4,3.88l15.39,6a7.34,7.34,0,0,0,9.48-4.15,7.33,7.33,0,0,0-1.31-7.48.09.09,0,0,1,0-.13c.05-.05.15,0,.15,0L41.86,28a1.66,1.66,0,0,0,.85.24,1.63,1.63,0,0,0,1.47-.92A1.69,1.69,0,0,0,43.48,25.18Z"/></svg>