<svg id="icons" xmlns="http://www.w3.org/2000/svg" viewBox="0 0 48 48"><defs><style>.cls-1{fill:#00377c;}.cls-2{fill:#fff;}</style></defs><title>ПАРК ВОДОПАДОВ МАЛОЕ КОЛЬЦО</title><rect class="cls-1" width="48" height="48" rx="6"/><path class="cls-2" d="M8.39,39.75A44.28,44.28,0,0,1,13,24C17.93,15.05,26.16,9.92,35.56,9.92h4.15V8.44H35.56c-10,0-18.66,5.41-23.86,14.83A44.54,44.54,0,0,0,6.89,39.75Z"/><path class="cls-2" d="M38.28,16.07h1.43V14.58H38.28c-6.15,0-10.34,2.29-14,7.64C20.54,27.74,19.24,35.71,19,39.75h1.51c.26-3.58,1.25-11.17,5-16.69C28.91,18.09,32.6,16.07,38.28,16.07Z"/><path class="cls-2" d="M39.71,11.54H36.15A20.56,20.56,0,0,0,19,20.7c-4.66,6.81-5.83,14.73-6.11,19.05h1.5c.29-4.18,1.45-11.81,5.84-18.21A18.82,18.82,0,0,1,36.15,13h3.56Z"/><path class="cls-2" d="M39.15,19.79c-5.77,0-8.73,3.52-10.38,6.59-2.3,4.29-2.92,9.23-3.16,13.37H37.35a2.36,2.36,0,0,0,2.36-2.36V19.79Z"/></svg>