<svg id="icons" xmlns="http://www.w3.org/2000/svg" viewBox="0 0 48 48"><defs><style>.cls-1{fill:#00377c;}.cls-2{fill:#fff;}</style></defs><title>ПАРАПЛАНЫ</title><rect class="cls-1" width="48" height="48" rx="9"/><path class="cls-2" d="M24.14,28a2.42,2.42,0,1,0-2.41-2.42A2.41,2.41,0,0,0,24.14,28Z"/><path class="cls-2" d="M37.3,8.63c-4.11-2.53-9.16-3.26-13-3.33h-.62c-3.83.07-8.88.8-13,3.33-4.33,2.66-6.5,5.94-5.83,8,.48,1.52,2,2.22,4.94,1.56l2.6-.57,7.5,10.62,1.24-.87L14,17.34A58,58,0,0,1,24,16.1a58.65,58.65,0,0,1,10.31,1.31l-7.07,10,1.25.87,7.44-10.55,2.26.5c3,.66,4.46,0,4.94-1.56C43.8,14.57,41.63,11.29,37.3,8.63Z"/><path class="cls-2" d="M31.62,27.94,29.3,30.17a.7.7,0,0,1-.92.06l-.86-.65a3.34,3.34,0,0,0-2-.68H22.11a3.34,3.34,0,0,0-2,.68l-.85.65a.71.71,0,0,1-.93-.06L16,27.94a.76.76,0,0,0-1.07,0,.77.77,0,0,0,0,1.08l2.31,2.23a2.22,2.22,0,0,0,2.9.17l.86-.65a1.86,1.86,0,0,1,1-.37v4.32a.94.94,0,0,1-.22.6l-1.87,2.15A4.81,4.81,0,0,0,19,39.11l-1.24,3.45h4.17L22.7,40a1.07,1.07,0,0,1,.2-.38l2.8-3.4a2.77,2.77,0,0,0,.69-1.84V30.65l.21.14.86.65a2.22,2.22,0,0,0,2.9-.17L32.67,29a.76.76,0,0,0-1.05-1.1Z"/></svg>