<svg id="icons" xmlns="http://www.w3.org/2000/svg" viewBox="0 0 48 48"><defs><style>.cls-1{fill:#00377c;}.cls-2{fill:#fff;}</style></defs><title>ПОДВЕСНОЙ МОСТ</title><rect class="cls-1" width="48" height="48" rx="6"/><rect class="cls-2" x="10.45" y="24" width="1.52" height="12.47"/><path class="cls-2" d="M42.83,21.76c-.49.2-1.11.43-1.84.66l-2.88-3.37a1.75,1.75,0,0,1-.41-1.14v-3.2a2.43,2.43,0,0,0-2.42-2.42h-4.7a2.61,2.61,0,0,0-2,1l-3.3,4a3.31,3.31,0,0,0-.76,2.11v5.3A64,64,0,0,1,4.39,21.61v1.62a64.74,64.74,0,0,0,18.36,3V37.28A62,62,0,0,1,4.39,34.15v3.44a66.74,66.74,0,0,0,20.25,3,53.3,53.3,0,0,0,18.19-2.78V34.29a32.51,32.51,0,0,1-4.64,1.5v-6.1A3.67,3.67,0,0,0,38,28.45l-1.24-3.34a39.52,39.52,0,0,0,6.09-1.7ZM27,18.75l2.88-3.51v9.27c-1,.08-2,.14-3.12.17V19.42A1.1,1.1,0,0,1,27,18.75ZM24.27,37.3V26.23h.37c1.88,0,3.62-.08,5.23-.2V37.1c-1.6.13-3.34.2-5.23.2Zm8.56-.51v-11l1-.13,1.42,3.78c0,.09,0,.22,0,.3v6.72C34.5,36.55,33.69,36.68,32.83,36.79Zm2.69-14.94a1.62,1.62,0,0,1-.11-.58V19c0-.18.11-.14.13,0a4.34,4.34,0,0,0,.83,1.61l2.22,2.59q-1.1.28-2.4.54Z"/><ellipse class="cls-2" cx="34.16" cy="8.07" rx="2.71" ry="2.76"/></svg>