<svg id="icons" xmlns="http://www.w3.org/2000/svg" viewBox="0 0 48 48"><defs><style>.cls-1{fill:#00377c;}.cls-2{fill:#fff;}</style></defs><title>ПРОКАТ ВЕЛОСИПЕДОВ</title><rect class="cls-1" width="48" height="48" rx="6"/><path class="cls-2" d="M40.45,10.52H39.36V8a3.66,3.66,0,0,0-7.31,0h1.52a2.14,2.14,0,0,1,4.27,0v2.52H31.51A1.49,1.49,0,0,0,30,12v5.28a1.48,1.48,0,0,0,1.48,1.48h8.94a1.48,1.48,0,0,0,1.48-1.48V12A1.49,1.49,0,0,0,40.45,10.52Z"/><rect class="cls-1" x="34.26" y="12.83" width="3.25" height="3.67"/><path class="cls-2" d="M35.54,29.4a6.64,6.64,0,0,0-2.36.44l-4.69-9.11a4.05,4.05,0,0,0-3.33-2h-4v1.52h4a2.54,2.54,0,0,1,2,1.21l2.74,5.31H19l-.84-1.65h2.1a.76.76,0,0,0,0-1.52H13.93a.76.76,0,1,0,0,1.52H16.4l1.19,2.33-2.38,3a6.51,6.51,0,0,0-3.44-1,6.6,6.6,0,1,0,6.55,7.34h2.33a6.3,6.3,0,0,0,4.63-2l5.59-6.06,1,1.88a6.6,6.6,0,1,0,3.71-1.14ZM15.45,32.51a5,5,0,0,1,1.33,2.72H13.26Zm-3.68,8.57a5.08,5.08,0,1,1,2.48-9.51l-3.17,3.94a.76.76,0,0,0,.6,1.23h5.11A5.08,5.08,0,0,1,11.77,41.08Zm6.55-5.85a6.57,6.57,0,0,0-1.91-3.92l1.94-2.41,3.2,6.24a5.38,5.38,0,0,1-.9.09Zm5.84-1.54a4.71,4.71,0,0,1-1.17.92l-3.26-6.35h9.44Zm11.38,7.39a5.07,5.07,0,0,1-3-9.17L34.9,36.5l1.35-.7-2.37-4.6a5.08,5.08,0,1,1,1.66,9.88Z"/></svg>