<svg id="icons" xmlns="http://www.w3.org/2000/svg" viewBox="0 0 48 48"><defs><style>.cls-1{fill:#00377c;}.cls-2{fill:#fff;}</style></defs><title>ТРОПА ПУТЬ К ВОДОПАДАМ</title><rect class="cls-1" width="48" height="48" rx="6"/><path class="cls-2" d="M28.3,7.86a3,3,0,1,1-3-3A3,3,0,0,1,28.3,7.86ZM16.41,20.67l1.65-5.74a3,3,0,1,0-5.77-1.65L10.64,19a3,3,0,0,0,2.06,3.71,2.9,2.9,0,0,0,.87.12A3,3,0,0,0,16.41,20.67Zm-.55,21.14,4.51-15.7A.41.41,0,0,1,21.1,26l3.78,5.77a3.43,3.43,0,0,1,.52,1.44l1,8.6h3.28l-1-9a6.63,6.63,0,0,0-1-2.85l-3.37-5.15A1.77,1.77,0,0,1,24,23.39l1.65-5.75a.35.35,0,0,1,.64-.09l2.27,3.65a4.88,4.88,0,0,0,4.13,2.29h3.83L31.3,41.81h1.59l5.6-19.48v0A1.37,1.37,0,0,0,38.23,21a1.92,1.92,0,0,0-1.55-.76h-4a1.59,1.59,0,0,1-1.36-.75l-3.28-5.25a4,4,0,0,0-3.38-1.88H23.53a3.43,3.43,0,0,0-3.26,2.36h0v0a1.12,1.12,0,0,0-.05.13l-.69,2.45h0l-7,24.49Z"/></svg>