<svg id="icons" xmlns="http://www.w3.org/2000/svg" viewBox="0 0 48 48"><defs><style>.cls-1{fill:#00377c;}.cls-2{fill:#fff;}</style></defs><title>ТРОЛЛЕЙ НА ПИКЕ</title><rect class="cls-1" width="48" height="48" rx="6"/><path class="cls-2" d="M14.2,17.36a3,3,0,1,1-3-3A3,3,0,0,1,14.2,17.36Z"/><path class="cls-2" d="M34.24,41.63,27,32.88l2-.49a1.57,1.57,0,0,1,1.6.52l5.8,7,2.49-2.08-5.78-7a4.88,4.88,0,0,0-4.16-1.72v-18L42,14.62l.39-1.46L9.64,4.38,9.25,5.85,27.37,10.7v6L22.29,20a4.7,4.7,0,0,1-2.11.75l-5.51.55a4.26,4.26,0,0,0-2.14.84l-.51.38a2.86,2.86,0,0,0-1.13,2,2.92,2.92,0,0,0,.64,2.18s5,6.29,5.11,6.35a5.71,5.71,0,0,0,5.25,1.13l1.57-.39,8.29,10Zm-12-11.79L17.9,24.26,20.51,24a8,8,0,0,0,3.57-1.27l3.29-2.18v8.87l-3.64.92A1.4,1.4,0,0,1,22.29,29.84Z"/><path class="cls-2" d="M26.54,7.4a1.73,1.73,0,1,1,1.73-1.73A1.73,1.73,0,0,1,26.54,7.4Z"/><path class="cls-2" d="M31.13,8.52a1.73,1.73,0,1,1,1.73-1.73A1.72,1.72,0,0,1,31.13,8.52Z"/></svg>