<svg id="icons" xmlns="http://www.w3.org/2000/svg" viewBox="0 0 48 48"><defs><style>.cls-1{fill:#00377c;}.cls-2{fill:#fff;}</style></defs><title>ХАСКИ ХУТОР</title><rect class="cls-1" width="48" height="48" rx="9"/><path class="cls-2" d="M28.89,22.23a1.12,1.12,0,0,0-1.12,1.12v1.17a1.12,1.12,0,0,0,2.24,0V23.35A1.12,1.12,0,0,0,28.89,22.23Z"/><path class="cls-2" d="M19.11,22.23A1.12,1.12,0,0,0,18,23.35v1.17a1.12,1.12,0,0,0,2.24,0V23.35A1.12,1.12,0,0,0,19.11,22.23Z"/><path class="cls-2" d="M37.73,22.54V7.94a2.46,2.46,0,0,0-1.16-2.19,2.63,2.63,0,0,0-2.73.18A14.68,14.68,0,0,0,31,8l-.19.2a8.67,8.67,0,0,0-2.26,3.89,10,10,0,0,0-1.35-.1H20.78a11.18,11.18,0,0,0-1.29.09,8.69,8.69,0,0,0-2.25-3.88L17.05,8a14.39,14.39,0,0,0-2.88-2,2.65,2.65,0,0,0-2.75-.19,2.47,2.47,0,0,0-1.15,2.19v15.5h0v5.07a1.65,1.65,0,0,0,.34,1c.65.83,2.17,2.77,4.09,5.07a31.71,31.71,0,0,0,5.77,5.15,6.23,6.23,0,0,0,7.07,0,31.31,31.31,0,0,0,5.76-5.15c1.92-2.3,3.44-4.24,4.09-5.07a1.65,1.65,0,0,0,.34-1v-6ZM11.79,7.94a1,1,0,0,1,.4-.87,1.27,1.27,0,0,1,1.23.19A13,13,0,0,1,15.93,9l.2.21A7.1,7.1,0,0,1,18,12.37a10.54,10.54,0,0,0-6.21,4.71Zm14.75,28-.38,1a1.14,1.14,0,0,1-1.06.73H22.9a1.11,1.11,0,0,1-1-.73l-.39-1a1.13,1.13,0,0,1,1.06-1.51h3A1.12,1.12,0,0,1,26.54,35.92Zm6.1-11.74A1.25,1.25,0,0,0,32,25.37v1.11a1.66,1.66,0,0,1-2.11,1.81l-1.67-.7a3.56,3.56,0,0,1-2.57-3.36V18.44c0-2-1.17-2-1.65-2s-1.63,0-1.65,2v5.79a3.56,3.56,0,0,1-2.58,3.36l-1.66.7A1.67,1.67,0,0,1,16,26.48V25.37a1.26,1.26,0,0,0-.63-1.19c-1.19-.67-3.55-1.94-3.55-1.94,0-.2,0-.6,0-.6a9,9,0,0,1,8.93-8.14h6.37a9,9,0,0,1,9,7.85s.08.6.09.89C36.2,22.24,33.79,23.54,32.64,24.18Zm3.57-7A10.64,10.64,0,0,0,30,12.38a7.06,7.06,0,0,1,1.87-3.15L32.06,9a13.33,13.33,0,0,1,2.52-1.76,1.27,1.27,0,0,1,1.23-.19,1,1,0,0,1,.4.87Z"/></svg>